HIERARCHY
ROOT Root
{
  OFFSET 0.0 0.0 0.0
  CHANNELS 6 Xposition Yposition Zposition Zrotation Yrotation Xrotation
  JOINT Hips
  {
    OFFSET 0.0 100.0 0.0
    CHANNELS 6 Xposition Yposition Zposition Zrotation Yrotation Xrotation
    JOINT Spine1
    {
      OFFSET 5.003913 -0.037094 -0.013727
      CHANNELS 3 Zrotation Yrotation Xrotation
      JOINT Spine2
      {
        OFFSET 7.125363 -1e-06 0.0
        CHANNELS 3 Zrotation Yrotation Xrotation
        JOINT Chest
        {
          OFFSET 7.594027 1e-06 0.0
          CHANNELS 3 Zrotation Yrotation Xrotation
          JOINT Neck1
          {
            OFFSET 26.313086 -0.460272 -0.181672
            CHANNELS 3 Zrotation Yrotation Xrotation
            JOINT Neck2
            {
              OFFSET 8.045911 0.0 0.0
              CHANNELS 3 Zrotation Yrotation Xrotation
              JOINT Head
              {
                OFFSET 6.432774 0.0 0.0
                CHANNELS 3 Zrotation Yrotation Xrotation
                JOINT HeadEnd
                {
                  OFFSET 16.169773 0.06451 0.00362
                  CHANNELS 3 Zrotation Yrotation Xrotation
                }
                JOINT Jaw
                {
                  OFFSET 0.108741 3.12938 0.002639
                  CHANNELS 3 Zrotation Yrotation Xrotation
                }
                JOINT LeftEye
                {
                  OFFSET 4.45173 8.166359 3.206392
                  CHANNELS 3 Zrotation Yrotation Xrotation
                }
                JOINT RightEye
                {
                  OFFSET 4.436895 8.135758 -3.222429
                  CHANNELS 3 Zrotation Yrotation Xrotation
                }
              }
            }
          }
          JOINT LeftShoulder
          {
            OFFSET 23.218927 5.195579 1.621656
            CHANNELS 3 Zrotation Yrotation Xrotation
            JOINT LeftArm
            {
              OFFSET 15.902118 2e-06 -2e-06
              CHANNELS 3 Zrotation Yrotation Xrotation
              JOINT LeftForeArm
              {
                OFFSET 28.739307 0.0 -1e-06
                CHANNELS 3 Zrotation Yrotation Xrotation
                JOINT LeftHand
                {
                  OFFSET 27.093981 -4e-06 0.0
                  CHANNELS 3 Zrotation Yrotation Xrotation
                  JOINT LeftHandThumb1
                  {
                    OFFSET 2.276781 3.380274 0.83384
                    CHANNELS 3 Zrotation Yrotation Xrotation
                    JOINT LeftHandThumb2
                    {
                      OFFSET 4.705309 -1e-06 -1e-06
                      CHANNELS 3 Zrotation Yrotation Xrotation
                      JOINT LeftHandThumb3
                      {
                        OFFSET 2.798515 0.0 3e-06
                        CHANNELS 3 Zrotation Yrotation Xrotation
                        JOINT LeftHandThumbEnd
                        {
                          OFFSET 3.180793 4e-06 -4e-06
                          CHANNELS 3 Zrotation Yrotation Xrotation
                        }
                      }
                    }
                  }
                  JOINT LeftHandIndex1
                  {
                    OFFSET 3.247786 2.352677 0.137192
                    CHANNELS 3 Zrotation Yrotation Xrotation
                    JOINT LeftHandIndex2
                    {
                      OFFSET 6.367095 1e-06 0.0
                      CHANNELS 3 Zrotation Yrotation Xrotation
                      JOINT LeftHandIndex3
                      {
                        OFFSET 3.662364 0.0 0.0
                        CHANNELS 3 Zrotation Yrotation Xrotation
                        JOINT LeftHandIndex4
                        {
                          OFFSET 2.329242 4e-06 -4e-06
                          CHANNELS 3 Zrotation Yrotation Xrotation
                          JOINT LeftHandIndexEnd
                          {
                            OFFSET 2.767823 1e-06 0.0
                            CHANNELS 3 Zrotation Yrotation Xrotation
                          }
                        }
                      }
                    }
                  }
                  JOINT LeftHandMiddle1
                  {
                    OFFSET 3.163612 0.945023 -0.406112
                    CHANNELS 3 Zrotation Yrotation Xrotation
                    JOINT LeftHandMiddle2
                    {
                      OFFSET 6.276789 3e-06 0.0
                      CHANNELS 3 Zrotation Yrotation Xrotation
                      JOINT LeftHandMiddle3
                      {
                        OFFSET 4.35652 -1e-06 4e-06
                        CHANNELS 3 Zrotation Yrotation Xrotation
                        JOINT LeftHandMiddle4
                        {
                          OFFSET 2.996877 0.0 8e-06
                          CHANNELS 3 Zrotation Yrotation Xrotation
                          JOINT LeftHandMiddleEnd
                          {
                            OFFSET 2.323256 3e-06 -4e-06
                            CHANNELS 3 Zrotation Yrotation Xrotation
                          }
                        }
                      }
                    }
                  }
                  JOINT LeftHandRing1
                  {
                    OFFSET 2.882606 -0.309162 0.107445
                    CHANNELS 3 Zrotation Yrotation Xrotation
                    JOINT LeftHandRing2
                    {
                      OFFSET 6.033198 0.0 4e-06
                      CHANNELS 3 Zrotation Yrotation Xrotation
                      JOINT LeftHandRing3
                      {
                        OFFSET 4.350578 3e-06 0.0
                        CHANNELS 3 Zrotation Yrotation Xrotation
                        JOINT LeftHandRing4
                        {
                          OFFSET 2.651321 2e-06 -7e-06
                          CHANNELS 3 Zrotation Yrotation Xrotation
                          JOINT LeftHandRingEnd
                          {
                            OFFSET 1.937663 1e-06 -4e-06
                            CHANNELS 3 Zrotation Yrotation Xrotation
                          }
                        }
                      }
                    }
                  }
                  JOINT LeftHandPinky1
                  {
                    OFFSET 2.865315 -1.525436 0.575687
                    CHANNELS 3 Zrotation Yrotation Xrotation
                    JOINT LeftHandPinky2
                    {
                      OFFSET 5.54936 1e-06 -8e-06
                      CHANNELS 3 Zrotation Yrotation Xrotation
                      JOINT LeftHandPinky3
                      {
                        OFFSET 3.070974 0.0 -4e-06
                        CHANNELS 3 Zrotation Yrotation Xrotation
                        JOINT LeftHandPinky4
                        {
                          OFFSET 1.549672 1e-06 0.0
                          CHANNELS 3 Zrotation Yrotation Xrotation
                          JOINT LeftHandPinkyEnd
                          {
                            OFFSET 1.952123 0.0 0.0
                            CHANNELS 3 Zrotation Yrotation Xrotation
                          }
                        }
                      }
                    }
                  }
                }
              }
            }
          }
          JOINT RightShoulder
          {
            OFFSET 23.161716 5.296122 -1.380114
            CHANNELS 3 Zrotation Yrotation Xrotation
            JOINT RightArm
            {
              OFFSET -16.027195 -2e-06 1.1e-05
              CHANNELS 3 Zrotation Yrotation Xrotation
              JOINT RightForeArm
              {
                OFFSET -28.736639 4e-06 2e-06
                CHANNELS 3 Zrotation Yrotation Xrotation
                JOINT RightHand
                {
                  OFFSET -27.133619 6e-06 0.0
                  CHANNELS 3 Zrotation Yrotation Xrotation
                  JOINT RightHandThumb1
                  {
                    OFFSET -2.274328 -3.351035 -0.83067
                    CHANNELS 3 Zrotation Yrotation Xrotation
                    JOINT RightHandThumb2
                    {
                      OFFSET -4.703594 -3e-06 2e-06
                      CHANNELS 3 Zrotation Yrotation Xrotation
                      JOINT RightHandThumb3
                      {
                        OFFSET -2.794935 -4e-06 -3e-06
                        CHANNELS 3 Zrotation Yrotation Xrotation
                        JOINT RightHandThumbEnd
                        {
                          OFFSET -3.183852 4e-06 1e-06
                          CHANNELS 3 Zrotation Yrotation Xrotation
                        }
                      }
                    }
                  }
                  JOINT RightHandIndex1
                  {
                    OFFSET -3.253496 -2.33755 -0.127667
                    CHANNELS 3 Zrotation Yrotation Xrotation
                    JOINT RightHandIndex2
                    {
                      OFFSET -6.344434 0.0 0.0
                      CHANNELS 3 Zrotation Yrotation Xrotation
                      JOINT RightHandIndex3
                      {
                        OFFSET -3.654871 0.0 -8e-06
                        CHANNELS 3 Zrotation Yrotation Xrotation
                        JOINT RightHandIndex4
                        {
                          OFFSET -2.327586 -1e-06 0.0
                          CHANNELS 3 Zrotation Yrotation Xrotation
                          JOINT RightHandIndexEnd
                          {
                            OFFSET -2.770001 3e-06 8e-06
                            CHANNELS 3 Zrotation Yrotation Xrotation
                          }
                        }
                      }
                    }
                  }
                  JOINT RightHandMiddle1
                  {
                    OFFSET -3.168223 -0.944764 0.411762
                    CHANNELS 3 Zrotation Yrotation Xrotation
                    JOINT RightHandMiddle2
                    {
                      OFFSET -6.266691 -1e-06 -4e-06
                      CHANNELS 3 Zrotation Yrotation Xrotation
                      JOINT RightHandMiddle3
                      {
                        OFFSET -4.348901 0.0 0.0
                        CHANNELS 3 Zrotation Yrotation Xrotation
                        JOINT RightHandMiddle4
                        {
                          OFFSET -3.00024 2e-06 -4e-06
                          CHANNELS 3 Zrotation Yrotation Xrotation
                          JOINT RightHandMiddleEnd
                          {
                            OFFSET -2.321477 -4e-06 -4e-06
                            CHANNELS 3 Zrotation Yrotation Xrotation
                          }
                        }
                      }
                    }
                  }
                  JOINT RightHandRing1
                  {
                    OFFSET -2.885654 0.293261 -0.119232
                    CHANNELS 3 Zrotation Yrotation Xrotation
                    JOINT RightHandRing2
                    {
                      OFFSET -6.032835 -1e-06 -4e-06
                      CHANNELS 3 Zrotation Yrotation Xrotation
                      JOINT RightHandRing3
                      {
                        OFFSET -4.33881 0.0 -4e-06
                        CHANNELS 3 Zrotation Yrotation Xrotation
                        JOINT RightHandRing4
                        {
                          OFFSET -2.654903 -4e-06 -4e-06
                          CHANNELS 3 Zrotation Yrotation Xrotation
                          JOINT RightHandRingEnd
                          {
                            OFFSET -1.935122 0.0 4e-06
                            CHANNELS 3 Zrotation Yrotation Xrotation
                          }
                        }
                      }
                    }
                  }
                  JOINT RightHandPinky1
                  {
                    OFFSET -2.866241 1.503904 -0.60527
                    CHANNELS 3 Zrotation Yrotation Xrotation
                    JOINT RightHandPinky2
                    {
                      OFFSET -5.553177 -2e-06 0.0
                      CHANNELS 3 Zrotation Yrotation Xrotation
                      JOINT RightHandPinky3
                      {
                        OFFSET -3.062664 -1e-06 -4e-06
                        CHANNELS 3 Zrotation Yrotation Xrotation
                        JOINT RightHandPinky4
                        {
                          OFFSET -1.546529 2e-06 4e-06
                          CHANNELS 3 Zrotation Yrotation Xrotation
                          JOINT RightHandPinkyEnd
                          {
                            OFFSET -1.952341 0.0 -4e-06
                            CHANNELS 3 Zrotation Yrotation Xrotation
                          }
                        }
                      }
                    }
                  }
                }
              }
            }
          }
        }
      }
    }
    JOINT LeftLeg
    {
      OFFSET -8.443107 2.567604 10.043214
      CHANNELS 3 Zrotation Yrotation Xrotation
      JOINT LeftShin
      {
        OFFSET 43.229198 1e-06 -1e-06
        CHANNELS 3 Zrotation Yrotation Xrotation
        JOINT LeftFoot
        {
          OFFSET 42.298611 1e-06 1e-06
          CHANNELS 3 Zrotation Yrotation Xrotation
          JOINT LeftToeBase
          {
            OFFSET 14.165858 1e-06 0.0
            CHANNELS 3 Zrotation Yrotation Xrotation
            JOINT LeftToeEnd
            {
              OFFSET 6.7141 -0.234461 0.0
              CHANNELS 3 Zrotation Yrotation Xrotation
            }
          }
        }
      }
    }
    JOINT RightLeg
    {
      OFFSET -8.303923 2.592729 -10.047278
      CHANNELS 3 Zrotation Yrotation Xrotation
      JOINT RightShin
      {
        OFFSET -43.369682 0.0 1e-06
        CHANNELS 3 Zrotation Yrotation Xrotation
        JOINT RightFoot
        {
          OFFSET -42.260784 4e-06 2e-06
          CHANNELS 3 Zrotation Yrotation Xrotation
          JOINT RightToeBase
          {
            OFFSET -14.222245 -2e-06 -1e-06
            CHANNELS 3 Zrotation Yrotation Xrotation
            JOINT RightToeEnd
            {
              OFFSET -6.660062 0.232574 -2e-06
              CHANNELS 3 Zrotation Yrotation Xrotation
            }
          }
        }
      }
    }
  }
}
MOTION
Frames: 4
Frame Time: 0.03333333333333333
0.0 0.0 0.0 0.0 -0.0 0.0 2.999521 2.340841 -92.741608 17.528372 83.240364 11.059016 0.695167 -0.585707 1.947075 -10.644987 0.11069 0.833433 11.149297 -3.43688 -3.276393 -4.680196 -7.62445 5.504006 -3.042602 -0.291019 1.674135 -39.990524 -1.129038 -0.526849 8e-06 -1e-06 1e-06 -0.261339 0.142856 -0.156778 -0.354408 -0.214933 0.032918 0.28807 0.469611 -0.328737 -73.900978 -72.625313 89.690887 20.93095 -64.986916 35.939091 21.218206 0.304986 -0.376735 1.675648 -5.0736 14.6319 17.636641 -26.322742 52.411213 -19.466669 -14.3956 29.410398 -1e-06 -8.774825 -4e-06 16.827372 -17.794947 6.263398 -0.609777 -1.795654 -3.889328 -4.807091 -11.046814 -2.937852 5e-06 -20.976028 -2e-06 -5.019974 -25.033571 -4.031881 7e-06 -1e-06 1e-06 -10.634538 -5.686974 -3.565588 10.573278 -17.922958 -3.113903 2e-06 -13.821214 1e-06 -0.501778 -31.181522 -4.027018 -11.7501 -61.169804 8.734921 -13.982718 -7.1502 -2.875042 13.772735 -8.401496 -3.218245 0.347733 -34.211559 0.771654 -0.963031 -17.733374 2.621021 -1e-06 -2e-06 0.0 -17.346426 -20.095224 -4.201781 21.757566 -1.638376 3.866428 1e-06 -6.338827 0.0 -1.697588 -22.591749 -6.194009 0.0 -3e-06 -1e-06 -179.673294 -70.87249 4.724092 -11.732635 -68.373055 53.008038 25.15493 -2.05567 -0.18102 -6.043232 -3.702644 14.919068 22.182112 -20.375898 49.933323 -16.701811 -16.74353 28.476532 -1e-06 -12.690603 0.0 15.977764 -16.916008 2.346395 -0.105921 -1.513856 -4.275883 -5.039042 -5.61287 -2.953555 5e-06 -11.020523 -2e-06 -6.111295 -15.895334 -3.840472 -1e-06 -1e-06 0.0 -10.283369 -5.680289 -4.341839 11.028291 -11.302406 -2.372632 -1.384269 -14.238579 -6.32012 -0.62544 -26.924189 -3.827604 -3.73341 -48.665905 -4.73026 -13.708525 -7.363475 -3.720938 18.141148 -14.052739 -3.242676 4e-06 -18.78727 -1e-06 -0.429713 -8.456043 2.555505 1e-06 -0.0 -2e-06 -15.923532 -20.094482 -5.473584 30.419214 -7.190824 1.735923 2e-06 -8.162927 -2e-06 -1.861904 -22.861471 -6.167944 1e-06 -2e-06 1e-06 168.332458 -16.693209 -28.747553 23.600534 2.321527 -4.694303 -15.964536 -53.70993 -57.593609 -8.510477 1.00613 1.121862 -0.999997 0.0 1e-06 -20.01193 -25.980955 -40.939316 41.279263 3.65413 -4.025523 -41.065907 -39.031242 -16.324081 -7.63912 0.073737 0.767211 -1.000002 0.0 -0.0 
0.0 0.0 0.0 0.0 -0.0 0.0 3.004116 2.352923 -92.772202 17.512695 83.21138 11.02778 0.68921 -0.563374 1.95341 -10.63905 0.128124 0.823813 11.129025 -3.43588 -3.28358 -4.701482 -7.730737 5.516202 -3.045782 -0.276218 1.700922 -39.969837 -1.097252 -0.596255 6e-06 -1e-06 1e-06 -0.25981 0.139655 -0.154572 -0.378582 -0.210772 0.032923 0.272313 0.458334 -0.324778 -73.885841 -72.62426 89.678757 20.947447 -64.993851 35.888416 21.225784 0.242924 -0.388815 1.639214 -5.039283 14.660571 17.636633 -26.322737 52.411213 -19.466665 -14.395602 29.410395 -1e-06 -8.774824 -2e-06 16.826946 -17.801407 6.274719 -0.609776 -1.795654 -3.889329 -4.807091 -11.046816 -2.937853 5e-06 -20.976025 -2e-06 -5.019975 -25.033571 -4.031883 8e-06 -0.0 1e-06 -10.634538 -5.686975 -3.56559 10.573278 -17.922958 -3.113902 2e-06 -13.821213 -0.0 -0.501779 -31.181522 -4.027019 -11.766248 -61.214985 8.747519 -13.982719 -7.1502 -2.875044 13.772734 -8.401496 -3.218245 0.347733 -34.211571 0.771653 -0.963032 -17.733379 2.621021 -1e-06 -1e-06 0.0 -17.346426 -20.095228 -4.201782 21.757565 -1.638375 3.866428 1e-06 -6.338825 0.0 -1.697591 -22.591757 -6.194008 0.0 -5e-06 -3e-06 -179.700668 -70.852905 4.693676 -11.771761 -68.381798 52.984638 25.138191 -2.097052 -0.176557 -6.092224 -3.685195 15.071277 22.182116 -20.375895 49.933327 -16.701815 -16.743528 28.476536 -2e-06 -12.690601 -2e-06 15.981056 -16.955656 2.349495 -0.10592 -1.513853 -4.275881 -5.039043 -5.612871 -2.953558 4e-06 -11.020525 -3e-06 -6.111299 -15.895338 -3.840474 -1e-06 -0.0 -1e-06 -10.283373 -5.680285 -4.341841 11.028294 -11.302406 -2.372635 -1.384267 -14.238581 -6.320122 -0.625437 -26.924187 -3.827604 -3.76086 -48.652092 -4.711828 -13.708526 -7.363475 -3.720942 18.141153 -14.052739 -3.242678 9e-06 -18.78727 -4e-06 -0.429713 -8.456045 2.555505 0.0 -1e-06 -0.0 -15.923534 -20.094484 -5.473588 30.41921 -7.190826 1.735926 3e-06 -8.162925 -2e-06 -1.861902 -22.861469 -6.167944 -0.0 -5e-06 0.0 168.417938 -16.682976 -28.77527 23.43082 2.323996 -4.683663 -15.875856 -53.734795 -57.662884 -8.477683 1.001662 1.112342 -0.999998 -0.0 1e-06 -19.966433 -25.890814 -40.969707 41.151466 3.621057 -4.017571 -40.989143 -39.025673 -16.317886 -7.659077 0.064747 0.766633 -1.000002 0.0 1e-06 
0.0 0.0 0.0 0.0 -0.0 0.0 3.008666 2.354228 -92.782036 17.376842 83.20462 10.87933 0.694456 -0.556077 1.959341 -10.625209 0.135823 0.816076 11.102421 -3.440249 -3.30104 -4.734535 -7.803057 5.537834 -3.054526 -0.202988 1.703142 -39.941929 -1.082608 -0.627809 7e-06 -1e-06 1e-06 -0.257559 0.13668 -0.151274 -0.407344 -0.209112 0.032498 0.25534 0.449673 -0.318414 -73.77047 -72.625549 89.564026 20.952494 -65.035461 35.891788 21.224773 0.207509 -0.414751 1.604816 -4.99725 14.690487 17.636627 -26.322733 52.411205 -19.466661 -14.395597 29.410389 -1e-06 -8.774822 -2e-06 16.807863 -17.79715 6.289035 -0.609776 -1.795654 -3.889329 -4.807088 -11.046807 -2.93785 5e-06 -20.976015 -2e-06 -5.01997 -25.033556 -4.031882 7e-06 0.0 1e-06 -10.634535 -5.686969 -3.565586 10.573277 -17.922951 -3.113905 3e-06 -13.821205 1e-06 -0.501778 -31.181505 -4.027013 -11.816127 -61.273785 8.801023 -13.982714 -7.150196 -2.875041 13.772731 -8.401493 -3.218242 0.347735 -34.211552 0.771656 -0.963027 -17.733366 2.621021 -1e-06 -1e-06 -0.0 -17.346416 -20.095213 -4.201786 21.757557 -1.638378 3.866428 1e-06 -6.338821 -0.0 -1.69759 -22.591738 -6.194005 1e-06 -5e-06 -2e-06 -179.700089 -70.831673 4.662989 -11.681225 -68.398834 52.85997 25.104023 -2.150702 -0.183738 -6.125877 -3.688921 15.194547 22.182108 -20.375895 49.933319 -16.701811 -16.74353 28.476532 -1e-06 -12.690602 -0.0 15.997788 -17.001505 2.342696 -0.105917 -1.513858 -4.275883 -5.039041 -5.612871 -2.953557 3e-06 -11.02052 -1e-06 -6.1113 -15.895332 -3.84047 -2e-06 -0.0 2e-06 -10.283371 -5.680288 -4.341838 11.028294 -11.302405 -2.372634 -1.384268 -14.238581 -6.32012 -0.625438 -26.924189 -3.827603 -3.788538 -48.623192 -4.712314 -13.708523 -7.363476 -3.720936 18.141148 -14.052737 -3.242679 5e-06 -18.78727 -2e-06 -0.429713 -8.456043 2.555505 0.0 -1e-06 -2e-06 -15.923532 -20.094482 -5.473583 30.41921 -7.190824 1.735921 2e-06 -8.162925 -2e-06 -1.8619 -22.861467 -6.167944 -0.0 -4e-06 0.0 168.471436 -16.687353 -28.816675 23.372105 2.334759 -4.689522 -15.895235 -53.746239 -57.66927 -8.474436 0.99002 1.094513 -0.999999 -0.0 -0.0 -19.941046 -25.855959 -40.983654 41.104931 3.597214 -4.019308 -40.987732 -39.024467 -16.314207 -7.638516 0.051433 0.759996 -1.000004 0.0 -1e-06 
0.0 0.0 0.0 0.0 -0.0 0.0 3.007922 2.343214 -92.795868 17.096361 83.210373 10.586128 0.717079 -0.56923 1.968125 -10.610603 0.132748 0.806352 11.076097 -3.433158 -3.323993 -4.751807 -7.82656 5.563361 -3.064611 -0.147236 1.689622 -39.923378 -1.064116 -0.647489 6e-06 -2e-06 1e-06 -0.255004 0.131765 -0.145258 -0.432037 -0.215304 0.033751 0.243546 0.444566 -0.308234 -73.690742 -72.636269 89.503723 20.983723 -65.058296 35.893776 21.210386 0.198692 -0.450153 1.56525 -4.962374 14.725657 17.636625 -26.322735 52.411198 -19.466661 -14.395596 29.410393 -2e-06 -8.774822 -2e-06 16.772982 -17.776072 6.295019 -0.609777 -1.795654 -3.889328 -4.807088 -11.046809 -2.937849 6e-06 -20.976019 0.0 -5.019971 -25.033556 -4.031879 8e-06 -0.0 1e-06 -10.634533 -5.686969 -3.565587 10.573272 -17.922947 -3.1139 3e-06 -13.821206 2e-06 -0.50178 -31.181498 -4.027013 -11.852688 -61.305851 8.839983 -13.982713 -7.150197 -2.875043 13.77273 -8.401492 -3.218244 0.347733 -34.211544 0.771659 -0.963029 -17.733366 2.621021 -1e-06 -1e-06 1e-06 -17.346415 -20.095213 -4.201781 21.757557 -1.638376 3.866426 1e-06 -6.338822 1e-06 -1.69759 -22.591738 -6.194001 1e-06 -4e-06 -2e-06 -179.647293 -70.82209 4.599701 -11.546875 -68.405251 52.713516 25.084074 -2.202118 -0.183652 -6.149447 -3.725178 15.273232 22.182117 -20.375896 49.933319 -16.701817 -16.74353 28.476534 -2e-06 -12.690601 -2e-06 16.012819 -17.027578 2.335466 -0.105921 -1.513855 -4.27588 -5.03904 -5.612872 -2.953557 5e-06 -11.020523 -2e-06 -6.111296 -15.895334 -3.84047 -1e-06 -0.0 -0.0 -10.283369 -5.680288 -4.341838 11.028296 -11.302406 -2.372633 -1.384268 -14.238579 -6.320118 -0.625435 -26.924187 -3.827601 -3.810313 -48.603493 -4.71617 -13.708528 -7.363473 -3.720939 18.141153 -14.052739 -3.242677 7e-06 -18.787268 -2e-06 -0.429712 -8.456043 2.555506 1e-06 -1e-06 -2e-06 -15.923536 -20.094482 -5.473584 30.419214 -7.190827 1.735926 4e-06 -8.162925 -1e-06 -1.861902 -22.861469 -6.16794 -0.0 -4e-06 -2e-06 168.554962 -16.670193 -28.865356 23.270622 2.333215 -4.707087 -15.875708 -53.722179 -57.663818 -8.50582 0.982017 1.082814 -0.999998 1e-06 0.0 -19.896967 -25.826355 -40.999596 41.050095 3.58146 -4.029963 -41.002674 -39.028366 -16.316906 -7.600023 0.040757 0.753385 -1.000001 0.0 -0.0 
